<svg xmlns="http://www.w3.org/2000/svg" width="1600" height="900" viewBox="0 0 1600 900" font-family="-apple-system,BlinkMacSystemFont,'Segoe UI',Roboto,sans-serif">
  <defs>
    <linearGradient id="g" x1="0" y1="0" x2="1" y2="0"><stop offset="0" stop-color="#0052d9"/><stop offset="1" stop-color="#3f86ff"/></linearGradient>
    <radialGradient id="glow" cx="0.82" cy="0.08" r="0.7"><stop offset="0" stop-color="#e2ecff"/><stop offset="1" stop-color="#ffffff" stop-opacity="0"/></radialGradient>
  </defs>
  <rect width="1600" height="900" fill="#ffffff"/>
  <rect width="1600" height="900" fill="url(#glow)"/>

  <!-- brand -->
  <g transform="translate(82,70)">
    <g transform="scale(0.5)" stroke-linecap="round" stroke-linejoin="round">
      <path d="M50 14C42 34 26 48 26 64a24 24 0 0 0 48 0C74 48 58 34 50 14Z" fill="#0052d9"/>
      <path d="M40 60 47 51 53 56 63 42" stroke="#fff" stroke-width="5" fill="none"/>
    </g>
    <text x="62" y="38" font-size="40" font-weight="800" fill="#0b1220" letter-spacing="-1">Drip</text>
  </g>
  <text x="84" y="172" font-size="16" font-weight="700" fill="#0052d9" letter-spacing="2.5">OPEN-SOURCE · APACHE-2.0 · SELF-HOSTABLE</text>

  <!-- headline -->
  <text x="80" y="312" font-size="62" font-weight="780" fill="#0b1220" letter-spacing="-2.5">The AI growth team</text>
  <text x="80" y="392" font-size="62" font-weight="780" fill="url(#g)" letter-spacing="-2.5">you can read.</text>

  <!-- sub -->
  <text x="84" y="470" font-size="27" fill="#48526b">Rules decide. The LLM only explains.</text>
  <text x="84" y="508" font-size="27" fill="#48526b">You approve before a cent moves.</text>

  <!-- CTA -->
  <text x="84" y="630" font-size="25" font-weight="700" fill="#0b1220">★  github.com/YunyueLi/Drip</text>
  <text x="84" y="676" font-size="23" font-weight="600" fill="#0052d9">▶  Live demo — yunyueli.github.io/Drip/app.html</text>

  <!-- ===== product: a Drip decision card (right) ===== -->
  <g transform="translate(905,196)">
    <rect x="16" y="16" width="568" height="348" rx="18" fill="#ffffff" stroke="#e7ebf3" stroke-width="1.5"/>
    <path d="M16 34 Q16 16 34 16 H566 Q584 16 584 34 V60 H16 Z" fill="#f6f8fc"/>
    <line x1="16" y1="60" x2="584" y2="60" stroke="#eef1f7" stroke-width="1.5"/>
    <circle cx="40" cy="38" r="5" fill="#ff5f57"/><circle cx="58" cy="38" r="5" fill="#febc2e"/><circle cx="76" cy="38" r="5" fill="#28c840"/>
    <text x="104" y="43" font-family="ui-monospace,Menlo,monospace" font-size="13" fill="#8a93a8">drip · decision card</text>
    <text x="40" y="100" font-size="18" font-weight="700" fill="#0b1220">Meta_Prospecting_v3</text>
    <text x="40" y="120" font-family="ui-monospace,Menlo,monospace" font-size="12.5" fill="#8a93a8">DTC_US · 7-day window</text>
    <rect x="416" y="80" width="148" height="47" rx="11" fill="#1a9d5a"/>
    <text x="490" y="103" text-anchor="middle" font-size="15" font-weight="800" fill="#ffffff">SCALE +20%</text>
    <text x="490" y="119" text-anchor="middle" font-size="11" fill="#d7f0e1">$200 → $240/day</text>
    <g font-size="10.5" font-weight="600" fill="#8a93a8">
      <rect x="40" y="146" width="122" height="54" rx="10" fill="#fff" stroke="#eef1f7" stroke-width="1.5"/><circle cx="54" cy="165" r="3.5" fill="#1a9d5a"/><text x="64" y="169">CPP</text><text x="54" y="189" font-family="ui-monospace,monospace" font-size="14" font-weight="700" fill="#0b1220">$18</text>
      <rect x="173" y="146" width="122" height="54" rx="10" fill="#fff" stroke="#eef1f7" stroke-width="1.5"/><circle cx="187" cy="165" r="3.5" fill="#1a9d5a"/><text x="197" y="169">ROAS</text><text x="187" y="189" font-family="ui-monospace,monospace" font-size="14" font-weight="700" fill="#0b1220">3.8×</text>
      <rect x="306" y="146" width="122" height="54" rx="10" fill="#fff" stroke="#eef1f7" stroke-width="1.5"/><circle cx="320" cy="165" r="3.5" fill="#1a9d5a"/><text x="330" y="169">CVR</text><text x="320" y="189" font-family="ui-monospace,monospace" font-size="14" font-weight="700" fill="#0b1220">2.5%</text>
      <rect x="439" y="146" width="122" height="54" rx="10" fill="#fff" stroke="#eef1f7" stroke-width="1.5"/><circle cx="453" cy="165" r="3.5" fill="#1a9d5a"/><text x="463" y="169">CTR</text><text x="453" y="189" font-family="ui-monospace,monospace" font-size="14" font-weight="700" fill="#0b1220">1.4%</text>
      <rect x="40" y="210" width="122" height="54" rx="10" fill="#fff" stroke="#eef1f7" stroke-width="1.5"/><circle cx="54" cy="229" r="3.5" fill="#1a9d5a"/><text x="64" y="233">Freq</text><text x="54" y="253" font-family="ui-monospace,monospace" font-size="14" font-weight="700" fill="#0b1220">1.8</text>
      <rect x="173" y="210" width="122" height="54" rx="10" fill="#fff" stroke="#eef1f7" stroke-width="1.5"/><circle cx="187" cy="229" r="3.5" fill="#1a9d5a"/><text x="197" y="233">Spend</text><text x="187" y="253" font-family="ui-monospace,monospace" font-size="14" font-weight="700" fill="#0b1220">$200</text>
      <rect x="306" y="210" width="122" height="54" rx="10" fill="#fff" stroke="#eef1f7" stroke-width="1.5"/><circle cx="320" cy="229" r="3.5" fill="#1a9d5a"/><text x="330" y="233">Purch</text><text x="320" y="253" font-family="ui-monospace,monospace" font-size="14" font-weight="700" fill="#0b1220">11</text>
      <rect x="439" y="210" width="122" height="54" rx="10" fill="#fff" stroke="#eef1f7" stroke-width="1.5"/><circle cx="453" cy="229" r="3.5" fill="#c98a14"/><text x="463" y="233">Headroom</text><text x="453" y="253" font-family="ui-monospace,monospace" font-size="14" font-weight="700" fill="#0b1220">83%</text>
    </g>
    <rect x="40" y="278" width="521" height="44" rx="10" fill="#eaf0fe"/>
    <text x="56" y="298" font-size="12" fill="#475069">rule chain: 7/8 signals green · unit economics healthy (CPP&lt;target, ROAS&gt;3×) →</text>
    <text x="56" y="314" font-size="12" font-weight="700" fill="#0052d9">scale at the conservative step (+20%), not +50%.</text>
    <text x="40" y="350" font-size="12" fill="#8a93a8">confidence <tspan font-weight="700" fill="#1a9d5a">HIGH</tspan> · auto-revert if CPP &gt; $22</text>
    <rect x="477" y="334" width="84" height="28" rx="8" fill="#0052d9"/><text x="519" y="352" text-anchor="middle" font-size="12.5" font-weight="700" fill="#ffffff">Approve ✓</text>
  </g>
</svg>
